<?xml version="1.0" standalone="no"?>
<!DOCTYPE svg PUBLIC "-//W3C//DTD SVG 20010904//EN"
 "http://www.w3.org/TR/2001/REC-SVG-20010904/DTD/svg10.dtd">
<svg version="1.0" xmlns="http://www.w3.org/2000/svg"
 width="1524.000000pt" height="538.000000pt" viewBox="0 0 1524.000000 538.000000"
 preserveAspectRatio="xMidYMid meet">

<g transform="translate(0.000000,538.000000) scale(0.100000,-0.100000)"
fill="#5AAB6F" stroke="none">
<path d="M2551 4994 c-18 -10 -38 -28 -43 -40 -13 -28 -34 -34 -76 -20 -40 14
-105 9 -95 -7 3 -6 1 -7 -5 -3 -17 10 -81 -23 -94 -48 -6 -12 -11 -65 -11
-121 1 -117 10 -143 75 -199 l43 -38 2 -140 1 -140 -32 -55 c-48 -82 -167
-198 -240 -235 -70 -35 -225 -138 -245 -162 -8 -9 -11 -26 -7 -40 8 -34 98
-126 122 -126 11 0 45 18 75 40 154 112 412 207 534 196 79 -7 204 -40 223
-60 24 -23 43 -146 31 -197 -3 -10 15 -31 46 -54 50 -39 51 -39 134 -37 77 2
89 5 142 38 33 19 59 40 59 45 0 6 4 8 9 4 5 -3 18 6 29 20 11 14 24 25 29 25
22 0 53 78 53 135 0 60 12 95 33 95 27 0 57 40 57 76 0 24 9 46 25 66 14 16
25 33 25 38 0 4 -13 21 -30 37 -18 18 -40 58 -55 104 -24 69 -25 78 -14 135
10 53 10 65 -5 94 -9 19 -19 48 -21 64 -6 36 -101 130 -123 121 -7 -2 -11 -1
-8 3 7 12 -149 163 -159 154 -4 -4 -5 -2 -2 4 3 6 -13 30 -37 53 -37 37 -49
42 -82 41 -22 -1 -63 -2 -91 -1 -52 1 -53 2 -73 45 -43 91 -124 128 -199 90z
m6 -515 c-19 -41 -40 -92 -47 -114 -28 -85 -68 -141 -87 -122 -3 4 0 26 6 49
7 24 14 52 16 63 8 53 39 142 54 155 41 38 75 60 83 52 5 -5 -7 -42 -25 -83z
m166 -112 c99 -88 90 -115 -44 -133 -27 -4 -49 -10 -49 -14 0 -13 -51 2 -57
17 -5 11 39 167 54 196 6 10 19 2 96 -66z m137 -297 c42 -48 45 -120 8 -172
-24 -34 -53 -36 -110 -5 -131 70 -167 110 -133 146 56 63 192 81 235 31z"/>
<path d="M1862 4858 c-6 -7 -20 -44 -32 -83 -38 -124 -43 -129 -163 -145 -248
-34 -369 -90 -513 -234 -60 -61 -80 -89 -131 -196 -68 -139 -79 -175 -63 -195
20 -24 121 -47 210 -49 l85 -1 -3 30 c-1 17 -12 67 -23 113 -11 46 -18 86 -15
89 12 12 49 -33 79 -94 16 -35 34 -63 38 -63 5 0 6 -6 3 -13 -2 -7 2 -21 9
-31 13 -18 15 -18 48 -1 42 22 141 101 190 152 32 34 165 229 211 312 9 17 32
40 50 52 30 18 43 20 123 14 50 -3 101 -7 115 -9 65 -8 65 18 2 93 -71 83 -97
121 -115 171 -18 49 -60 100 -81 100 -8 0 -18 -6 -24 -12z"/>
<path d="M3589 4767 c-9 -7 -19 -22 -23 -35 -10 -29 -27 -28 -56 5 l-23 27 -9
-25 c-5 -13 -7 -37 -4 -54 5 -29 -20 -75 -41 -75 -5 0 -17 -15 -26 -34 l-16
-34 62 5 c70 6 110 22 149 58 26 24 27 29 22 93 -7 75 -12 86 -35 69z"/>
<path d="M3628 4551 c-55 -35 -98 -94 -98 -134 0 -36 21 -67 130 -187 110
-123 434 -442 483 -477 80 -56 71 17 -24 202 -28 55 -66 125 -84 155 -17 30
-72 128 -121 218 -105 192 -153 252 -205 252 -22 0 -53 -11 -81 -29z"/>
<path d="M1920 4325 c-10 -12 -7 -20 14 -46 26 -30 26 -39 -1 -70 -8 -9 -23
-39 -33 -67 -16 -43 -17 -52 -5 -62 19 -16 42 -2 94 59 24 28 50 51 56 51 7 0
23 -8 36 -19 34 -26 49 -16 49 30 0 54 -11 71 -66 108 -53 35 -122 43 -144 16z"/>
<path d="M3707 3925 c8 -25 17 -44 20 -41 7 6 -16 74 -27 81 -5 3 -2 -15 7
-40z"/>
<path d="M3580 3913 c0 -6 10 -18 23 -26 39 -27 117 -103 117 -115 0 -16 -23
-15 -87 2 -29 8 -55 10 -58 6 -3 -5 8 -11 25 -15 40 -9 60 -43 35 -61 -15 -11
-13 -14 21 -20 56 -10 164 -54 200 -81 17 -13 34 -23 37 -23 3 0 19 -12 35
-27 27 -25 31 -37 37 -107 7 -83 30 -150 62 -178 69 -62 198 -62 266 0 57 51
77 185 38 247 -50 81 -98 102 -205 90 -103 -12 -121 -10 -150 13 -39 30 -102
109 -143 179 -32 54 -38 60 -49 46 -10 -15 -13 -15 -25 5 -16 25 -29 29 -29 7
0 -22 -27 -18 -64 10 -18 14 -37 25 -41 25 -5 0 -17 7 -27 17 -10 9 -18 11
-18 6z"/>
<path d="M1340 3856 c-87 -31 -160 -66 -160 -77 0 -5 -3 -8 -7 -7 -5 1 -30
-10 -58 -25 -105 -58 -146 -99 -187 -187 -30 -65 -30 -174 1 -224 20 -32 27
-36 64 -36 43 0 136 31 197 65 59 34 166 147 198 211 64 129 94 274 61 295
-21 13 -38 11 -109 -15z"/>
<path d="M692 3855 c-62 -27 -88 -163 -42 -213 28 -30 44 -28 57 9 11 29 15
31 45 24 18 -4 60 -8 93 -9 55 -1 60 1 63 21 4 25 -15 37 -98 68 -48 18 -55
23 -52 45 8 62 7 65 -13 67 -11 2 -35 -4 -53 -12z"/>
<path d="M2335 3683 c-36 -9 -40 -21 -17 -53 12 -16 22 -35 22 -42 0 -7 -27
-40 -60 -73 -59 -57 -79 -93 -65 -114 13 -22 53 -10 121 34 38 24 74 45 81 45
6 0 21 -13 33 -30 12 -16 30 -30 40 -30 22 0 52 59 46 92 -3 12 -5 28 -5 34
-1 6 -20 32 -42 58 -54 61 -109 89 -154 79z"/>
<path d="M3399 3630 c-61 -32 -59 -64 8 -127 38 -36 40 -52 13 -110 -10 -24
-16 -43 -12 -43 4 0 2 -4 -4 -8 -26 -17 -44 -73 -44 -135 0 -35 3 -67 8 -71 4
-4 7 -11 7 -14 0 -15 29 -78 43 -94 9 -11 11 -24 6 -40 -4 -13 -8 -225 -9
-473 -1 -413 -3 -460 -22 -575 -29 -164 -38 -213 -58 -285 -9 -33 -23 -85 -30
-115 -8 -30 -35 -116 -61 -190 -45 -127 -48 -141 -48 -240 -1 -103 0 -107 39
-185 36 -73 46 -84 110 -127 96 -64 164 -83 300 -83 100 0 115 3 165 27 71 36
123 83 204 186 116 147 208 325 264 507 43 141 56 237 56 415 -1 264 -61 558
-182 885 -74 199 -92 245 -126 320 -52 114 -83 155 -133 176 -33 14 -43 24
-43 41 0 13 -7 34 -16 46 -18 27 -116 93 -164 112 -80 31 -163 103 -201 175
-13 25 -26 45 -29 45 -3 -1 -21 -10 -41 -20z m431 -350 c-20 -13 -40 -13 -40
0 0 6 12 10 28 10 21 0 24 -2 12 -10z m-60 -20 c0 -11 -4 -20 -10 -20 -5 0
-10 -7 -10 -16 0 -8 -7 -22 -16 -31 -8 -9 -13 -21 -11 -27 3 -7 -6 -13 -21
-14 -18 -1 -35 8 -55 30 -34 37 -47 27 -47 -39 0 -63 -7 -74 -36 -61 -24 11
-25 15 -18 67 11 97 33 111 102 69 34 -21 36 -21 46 -4 38 64 76 87 76 46z"/>
<path d="M1665 3550 c-26 -5 -30 -10 -29 -35 2 -42 57 -188 73 -193 8 -3 11 0
7 7 -4 6 -3 11 2 11 15 0 46 107 46 159 1 44 0 46 -34 51 -19 3 -48 3 -65 0z"/>
<path d="M14350 3528 c-47 -23 -71 -55 -93 -118 -8 -25 -29 -80 -45 -122 -17
-43 -26 -78 -21 -78 5 0 0 -9 -11 -20 -11 -11 -20 -26 -20 -32 0 -7 -12 -44
-26 -83 -69 -187 -151 -400 -163 -424 -10 -20 -30 -25 -35 -9 -30 91 -50 137
-59 131 -6 -3 -7 -1 -3 6 5 7 -2 38 -14 69 -12 31 -27 69 -32 84 -6 15 -14 25
-19 22 -5 -3 -6 1 -3 9 2 7 0 27 -7 43 -14 37 -85 233 -106 298 -32 94 -87
190 -122 213 -37 25 -118 31 -164 14 -29 -11 -70 -48 -85 -78 -23 -43 -6 -140
31 -184 9 -10 13 -19 8 -19 -15 0 73 -210 92 -218 4 -2 5 -7 2 -12 -5 -8 17
-74 47 -140 13 -30 22 -54 38 -100 7 -19 21 -55 33 -80 11 -25 30 -74 43 -109
13 -36 27 -67 32 -70 5 -3 9 -13 9 -21 0 -15 38 -115 73 -195 9 -22 23 -58 30
-80 35 -109 99 -195 147 -195 13 0 23 -4 23 -10 0 -16 37 -12 83 10 45 22 94
81 81 101 -4 7 -3 9 2 6 6 -3 15 6 21 21 44 110 52 135 46 145 -3 6 -1 7 5 3
8 -5 16 9 24 38 7 26 16 46 20 46 4 0 8 10 8 23 0 13 4 27 8 32 5 6 21 42 37
80 15 39 31 79 36 90 6 16 18 50 24 75 1 3 10 22 19 44 9 21 15 45 12 53 -3 8
-2 12 3 9 8 -5 61 100 61 122 0 7 4 20 9 30 5 9 26 60 46 112 21 52 41 104 46
115 43 104 50 125 44 136 -4 6 -1 16 6 21 11 7 11 11 2 15 -7 2 -13 9 -13 14
0 6 4 8 9 4 13 -8 24 32 17 61 -4 13 -6 27 -5 30 0 3 -11 19 -27 35 -49 51
-141 68 -204 37z"/>
<path d="M5473 3516 c-16 -14 -38 -43 -48 -65 -16 -36 -17 -48 -6 -96 7 -30
16 -55 21 -55 5 0 7 -6 4 -14 -5 -14 88 -414 128 -549 11 -38 33 -128 48 -200
32 -148 55 -246 71 -295 6 -18 13 -44 15 -59 8 -44 43 -92 88 -121 34 -21 53
-26 111 -26 127 -1 202 58 245 193 12 36 25 75 29 86 5 11 14 43 20 70 13 57
62 221 92 311 11 34 21 68 23 75 1 8 4 19 8 24 3 6 11 29 17 53 12 43 17 47
38 34 12 -8 113 -314 205 -622 17 -58 48 -120 59 -120 6 0 8 -4 5 -8 -7 -11
35 -60 54 -64 8 -2 19 -9 25 -16 6 -8 39 -13 90 -14 157 -4 213 58 264 287 57
259 90 397 159 675 100 403 102 464 15 521 -38 26 -137 26 -178 1 -30 -19 -65
-77 -84 -142 -21 -75 -53 -241 -48 -255 3 -7 2 -15 -2 -17 -8 -3 -54 -191 -85
-348 -20 -97 -36 -142 -49 -137 -6 2 -23 34 -38 73 -25 64 -51 144 -161 499
-22 72 -44 138 -49 147 -5 10 -9 26 -9 35 -1 32 -54 117 -89 140 -27 18 -48
23 -98 23 -63 0 -64 0 -113 -50 -28 -27 -50 -55 -50 -63 0 -7 -15 -60 -33
-118 -19 -57 -44 -138 -57 -179 -12 -41 -49 -156 -81 -254 -33 -99 -59 -188
-59 -197 0 -10 -4 -21 -10 -24 -5 -3 -10 -15 -10 -26 0 -10 -6 -19 -13 -19 -8
0 -20 32 -31 83 -10 45 -23 93 -29 107 -5 14 -11 34 -12 45 -5 41 -25 127 -32
138 -4 7 -9 21 -9 32 -1 11 -6 40 -12 65 -5 25 -22 101 -37 170 -14 68 -30
129 -35 136 -6 6 -7 14 -3 17 12 12 -41 100 -72 119 -21 13 -50 18 -97 18 -56
0 -71 -4 -95 -24z"/>
<path d="M1519 3463 c-31 -27 -79 -94 -79 -113 0 -13 102 -58 150 -66 66 -11
73 -3 51 54 -35 89 -62 140 -76 146 -8 3 -28 -7 -46 -21z"/>
<path d="M1805 3459 c-21 -39 -55 -146 -55 -170 0 -24 25 -19 113 23 87 40 92
43 95 61 4 18 -43 66 -93 98 -39 25 -42 24 -60 -12z"/>
<path d="M797 3443 c-14 -14 -6 -55 29 -141 21 -50 34 -97 31 -105 -3 -9 -25
-21 -49 -27 -87 -24 -230 -112 -295 -183 -50 -54 -73 -98 -102 -191 -17 -56
-21 -94 -21 -215 0 -81 3 -151 7 -155 4 -3 8 -16 10 -28 13 -82 78 -209 143
-281 68 -75 210 -168 243 -159 4 1 7 -2 7 -6 0 -19 183 -82 236 -82 86 0 283
91 399 184 42 33 103 148 122 226 18 80 13 267 -11 352 -20 73 -69 178 -116
248 -44 65 -157 180 -197 201 -15 7 -30 17 -33 20 -22 27 -190 89 -241 89 -37
0 -48 18 -64 102 -7 40 -18 88 -25 106 -15 40 -54 65 -73 45z"/>
<path d="M2472 3300 c-127 -34 -241 -96 -317 -174 -76 -78 -144 -192 -170
-285 -35 -128 -24 -306 26 -441 30 -79 165 -260 194 -260 7 0 15 -6 18 -14 9
-23 168 -94 247 -111 172 -35 340 -8 497 79 29 16 50 33 46 39 -3 6 -1 7 5 3
27 -16 228 209 219 246 -3 10 -2 16 3 13 24 -15 50 125 50 274 0 137 -21 228
-74 318 -39 67 -181 207 -198 197 -6 -4 -8 -3 -5 3 7 11 -60 50 -142 83 -120
47 -287 59 -399 30z m188 -70 c126 -20 128 -59 22 -367 -13 -40 -24 -76 -25
-80 0 -11 -29 -32 -45 -33 -7 0 -28 33 -46 73 -43 92 -116 312 -116 347 0 62
70 82 210 60z m243 -62 c39 -23 71 -48 140 -115 52 -50 68 -73 73 -101 9 -60
-24 -86 -193 -153 -43 -17 -82 -34 -88 -38 -5 -4 -36 -14 -68 -21 -78 -18 -85
-10 -68 73 14 71 55 201 84 267 43 96 69 116 120 88z m-528 -36 c16 -11 60
-73 80 -112 33 -64 96 -253 93 -279 -3 -25 -6 -26 -53 -23 -35 2 -46 0 -35 -7
8 -5 18 -7 22 -5 4 3 8 1 8 -5 0 -5 9 -13 21 -16 14 -5 19 -14 17 -28 -2 -17
-26 -34 -95 -68 -108 -54 -266 -111 -296 -107 -33 5 -58 50 -69 124 -14 87 -5
139 27 160 21 14 32 14 117 -1 157 -28 167 -27 68 8 -147 51 -170 64 -170 98
0 52 82 168 169 242 31 26 75 35 96 19z m800 -325 c19 -29 30 -130 21 -188
-11 -71 -26 -84 -101 -84 -35 0 -62 -1 -61 -2 2 -2 27 -16 57 -31 48 -24 54
-31 57 -62 4 -46 -53 -136 -127 -202 -60 -54 -105 -72 -136 -53 -39 24 -165
302 -169 370 -1 27 3 30 30 33 17 2 64 -4 104 -12 41 -9 75 -14 77 -12 2 2
-20 11 -49 21 -77 25 -148 63 -148 80 0 19 63 61 128 83 29 10 49 22 44 27 -4
4 -2 6 3 2 6 -3 37 4 70 15 131 45 178 49 200 15z m-610 -237 c6 -18 -3 -67
-32 -180 -7 -29 -7 -28 -17 -55 -4 -11 -13 -33 -18 -50 -35 -100 -59 -141 -84
-143 -40 -3 -111 40 -200 123 -24 22 -74 110 -74 130 0 31 149 112 302 165
101 35 115 36 123 10z m127 -88 c18 -37 36 -69 41 -70 4 -2 5 -7 2 -12 -3 -4
8 -36 23 -71 38 -86 66 -184 58 -204 -10 -26 -64 -42 -166 -50 -93 -6 -96 -6
-123 19 -20 18 -27 35 -27 62 0 46 43 205 81 298 16 39 29 76 29 83 0 13 20
22 37 16 6 -3 27 -35 45 -71z"/>
<path d="M1377 3271 c-5 -21 7 -98 16 -108 15 -14 186 51 202 77 10 16 7 17
-75 34 -102 22 -136 21 -143 -3z"/>
<path d="M7820 3184 c-134 -42 -154 -51 -213 -100 -63 -51 -119 -119 -151
-181 -25 -49 -48 -124 -42 -138 2 -7 -1 -18 -7 -24 -17 -17 -17 -263 0 -268 7
-3 9 -11 6 -19 -7 -19 15 -93 35 -116 8 -10 11 -18 7 -18 -4 0 0 -9 10 -20 10
-11 15 -20 11 -20 -8 0 27 -51 64 -94 14 -15 59 -51 100 -78 55 -37 80 -48 98
-43 14 3 21 2 18 -4 -3 -5 4 -11 17 -14 46 -12 166 -19 179 -11 7 5 23 7 34 6
12 -2 29 4 38 13 9 9 16 14 16 10 0 -3 18 4 40 16 22 13 40 29 40 38 0 8 3 12
6 8 4 -3 13 0 21 8 21 22 31 19 47 -14 9 -16 29 -40 46 -55 26 -21 42 -26 86
-26 77 0 106 17 140 80 16 32 18 72 19 490 2 432 1 457 -17 490 -11 19 -31 43
-44 54 -28 20 -94 32 -121 22 -10 -4 -19 -7 -21 -6 -13 4 -64 -37 -82 -64 -23
-38 -43 -39 -68 -4 -40 55 -233 106 -312 82z m243 -324 c130 -89 142 -361 21
-475 -20 -19 -46 -37 -58 -40 -11 -3 -38 -11 -58 -17 -29 -8 -51 -8 -90 1 -59
13 -82 29 -118 81 -13 19 -31 40 -40 47 -11 9 -11 12 -2 13 10 0 10 5 2 20 -6
12 -13 63 -15 115 -4 88 -2 98 26 154 31 61 88 121 115 121 8 0 13 3 10 8 -2
4 36 4 85 1 69 -5 96 -11 122 -29z"/>
<path d="M11741 3180 c-68 -15 -161 -63 -219 -115 -61 -55 -116 -130 -106
-147 4 -6 3 -8 -3 -5 -14 9 -62 -101 -79 -182 -25 -117 -13 -234 35 -361 39
-105 134 -229 175 -231 13 0 16 -3 8 -6 -21 -8 99 -73 122 -67 11 4 16 2 12
-4 -6 -11 16 -17 99 -27 64 -8 162 3 179 21 8 7 16 10 20 7 7 -7 76 45 76 58
0 6 -6 7 -12 3 -8 -4 -8 -2 1 7 10 11 15 11 18 2 3 -9 9 -10 23 -1 16 10 22 8
40 -11 11 -13 20 -28 20 -33 0 -21 67 -48 119 -48 104 0 161 70 161 197 0 48
-3 64 -10 53 -8 -12 -10 -11 -10 7 0 12 5 25 10 28 16 10 12 672 -3 679 -9 3
-9 5 1 5 23 2 5 78 -30 122 -20 25 -74 49 -110 49 -47 -1 -111 -33 -137 -69
-12 -17 -27 -31 -33 -31 -5 0 -28 14 -49 31 -78 62 -213 91 -318 69z m240
-310 c37 -20 80 -70 102 -120 29 -66 29 -219 0 -275 -11 -22 -18 -46 -15 -54
2 -8 0 -11 -5 -8 -5 3 -24 -10 -42 -28 -32 -34 -104 -65 -148 -65 -106 0 -211
88 -220 184 -2 22 -7 42 -11 44 -10 3 5 156 19 201 7 19 20 44 30 55 11 11 19
22 19 26 0 3 18 16 40 30 22 14 40 27 40 30 0 10 167 -7 191 -20z m436 -522
c-3 -7 -5 -2 -5 12 0 14 2 19 5 13 2 -7 2 -19 0 -25z"/>
<path d="M1580 3161 c-97 -38 -121 -51 -115 -61 4 -6 1 -9 -7 -8 -23 5 -8 -35
25 -70 39 -40 79 -63 94 -54 19 12 73 155 73 195 0 21 -11 20 -70 -2z"/>
<path d="M8875 3173 c-30 -7 -62 -41 -84 -89 -20 -42 -21 -61 -21 -467 0 -364
2 -430 16 -471 9 -26 23 -50 30 -53 8 -3 12 -9 9 -14 -11 -16 54 -39 111 -39
46 0 64 5 90 25 59 45 59 42 64 400 5 321 6 331 27 361 12 17 39 44 60 60 32
25 47 29 99 29 74 0 117 -21 160 -79 l31 -41 2 -305 c1 -168 5 -316 8 -330 19
-81 70 -120 158 -120 69 0 106 23 135 82 18 37 19 65 20 382 1 415 -8 466 -87
551 -82 88 -174 125 -315 125 -107 0 -190 -24 -251 -74 l-38 -30 -36 38 c-55
58 -115 77 -188 59z"/>
<path d="M10183 3173 c-34 -7 -81 -67 -98 -127 -14 -47 -16 -114 -13 -463 l3
-408 25 -48 c34 -68 64 -87 138 -87 51 0 66 4 91 26 64 53 64 54 70 419 5 250
9 315 21 335 8 14 15 32 15 40 0 8 5 15 10 15 6 1 26 9 45 20 23 13 55 19 96
20 54 0 68 -4 111 -34 27 -19 50 -39 51 -45 0 -6 7 -29 16 -51 12 -32 15 -94
16 -324 0 -315 5 -345 57 -391 29 -26 42 -30 93 -30 62 0 93 7 85 20 -3 4 3 7
12 6 10 0 26 16 40 39 l23 40 -2 390 c-3 354 -5 394 -22 432 -10 24 -23 40
-29 36 -6 -3 -7 -1 -3 5 9 15 -58 88 -109 118 -65 38 -132 54 -228 54 -109 0
-182 -20 -242 -66 -25 -19 -51 -34 -58 -34 -6 1 -21 15 -32 33 -34 53 -101 76
-182 60z"/>
<path d="M1750 3159 c0 -40 71 -183 93 -187 19 -4 93 61 112 98 18 35 9 47
-59 70 -79 28 -146 37 -146 19z"/>
<path d="M1679 3125 c-4 -16 -6 -22 -16 -45 -37 -89 -46 -141 -30 -167 10 -15
75 -17 111 -3 23 8 25 14 20 45 -12 77 -77 205 -85 170z"/>
<path d="M1848 2745 c-4 -5 -41 -8 -160 -14 -25 -1 -22 -15 11 -53 37 -43 40
-70 14 -139 -39 -102 -48 -170 -33 -236 8 -32 20 -74 28 -93 19 -46 90 -147
108 -154 22 -8 104 79 104 110 0 13 -21 23 -60 30 -37 7 -50 12 -50 22 0 9 57
26 74 23 71 -15 66 -18 66 36 0 55 -22 130 -54 183 -12 19 -34 60 -49 91 -31
62 -29 78 18 147 14 20 25 40 25 44 0 9 -34 11 -42 3z"/>
<path d="M2025 1976 c-85 -39 -131 -109 -134 -202 -4 -135 108 -254 239 -254
60 0 112 22 171 71 81 67 119 73 229 33 71 -25 155 -70 239 -127 l45 -31 -23
37 c-32 52 -10 48 72 -14 38 -28 70 -49 72 -47 3 2 -16 24 -40 48 -25 24 -45
53 -45 63 0 16 6 18 43 13 23 -3 71 -8 107 -11 l65 -5 -70 18 c-140 36 -186
54 -183 71 2 9 12 17 23 19 32 6 166 54 162 59 -3 2 -31 -1 -63 -6 -47 -7 -62
-6 -74 5 -12 12 -12 18 -2 35 19 31 11 32 -44 7 -44 -20 -65 -23 -189 -22 -77
0 -157 4 -177 7 -36 8 -49 22 -95 107 -75 135 -202 184 -328 126z"/>
<path d="M1695 1968 c-16 -6 -47 -22 -67 -34 -55 -35 -84 -40 -97 -16 -16 29
-40 52 -56 52 -20 0 -45 -53 -45 -95 0 -43 39 -114 82 -150 22 -18 41 -25 73
-25 52 0 59 7 39 44 -22 43 -18 54 34 85 50 31 112 95 112 115 0 15 -21 36
-34 35 -6 0 -24 -5 -41 -11z"/>
<path d="M779 1689 c-29 -41 -32 -85 -8 -136 24 -50 91 -113 122 -114 12 0 29
-2 38 -4 9 -1 22 1 30 5 11 7 10 15 -4 45 -9 20 -17 40 -17 45 0 5 21 23 48
41 60 40 114 98 110 118 -6 31 -73 26 -136 -10 -52 -30 -118 -47 -106 -28 7
12 -14 47 -36 59 -15 8 -22 5 -41 -21z"/>
<path d="M1237 1603 c-4 -3 -7 -30 -7 -58 0 -56 52 -216 94 -290 12 -22 33
-58 45 -80 13 -22 31 -47 40 -56 9 -9 27 -32 41 -50 128 -172 454 -392 644
-434 95 -21 299 -16 391 9 77 22 193 78 228 110 15 14 30 24 32 23 17 -7 235
239 235 264 0 30 -78 -8 -126 -61 -140 -155 -243 -236 -341 -267 -28 -9 -50
-19 -49 -22 7 -11 -57 -16 -199 -15 -160 0 -248 19 -370 79 -142 71 -348 244
-424 357 -21 32 -42 54 -46 50 -3 -4 -5 -2 -4 3 2 6 -22 62 -54 126 -31 64
-57 123 -57 132 0 9 -4 18 -9 21 -5 4 -17 42 -27 86 -16 76 -22 88 -37 73z"/>
<path d="M1354 1569 c4 -13 8 -31 10 -39 27 -115 40 -152 94 -272 36 -78 110
-181 125 -171 5 3 7 1 3 -5 -8 -13 95 -105 187 -166 89 -61 162 -96 277 -137
91 -32 101 -34 230 -33 102 0 147 5 185 18 174 62 268 146 379 338 l28 48 -29
11 c-15 6 -44 13 -65 16 -30 4 -38 2 -47 -16 -16 -28 -43 -27 -80 5 -17 14
-31 22 -31 17 0 -4 -6 0 -14 9 -7 10 -33 26 -57 36 -43 18 -485 162 -564 184
-38 10 -68 19 -280 82 -49 15 -115 36 -145 47 -30 10 -66 20 -80 22 -14 1 -29
5 -35 9 -5 3 -30 9 -54 13 -43 7 -44 7 -37 -16z m314 -152 c4 -22 -22 -53 -61
-74 -25 -13 -31 -13 -53 2 -28 18 -31 36 -6 57 42 37 114 46 120 15z m126
-223 c25 -10 19 -43 -13 -75 -29 -29 -64 -37 -90 -20 -22 14 -4 59 32 81 34
21 46 24 71 14z m218 -144 c-5 -68 -69 -115 -99 -74 -18 25 -17 29 24 74 47
53 79 52 75 0z m463 6 c40 -41 46 -99 10 -112 -36 -14 -92 89 -65 121 17 21
27 19 55 -9z m-237 -58 c30 -30 6 -128 -32 -128 -25 0 -47 36 -40 66 14 62 45
89 72 62z"/>
</g>
</svg>
